<?xml version="1.0" encoding="UTF-8"?>
<svg width="709px" height="283px" viewBox="0 0 709 283" version="1.1" xmlns="http://www.w3.org/2000/svg" xmlns:xlink="http://www.w3.org/1999/xlink">
    <!-- Generator: Sketch 58 (84663) - https://sketch.com -->
    <title>logo-text-horizontal</title>
    <desc>Created with Sketch.</desc>
    <g id="logo-text-horizontal" stroke="none" stroke-width="1" fill="none" fill-rule="evenodd">
        <path d="M236.3819,153.464 C240.5759,153.434 242.6109,150.541 242.5869,147.252 C242.5629,143.963 240.5699,141.263 236.3759,141.294 L227.6599,141.356 L227.7479,153.526 L236.3819,153.464 Z M234.9779,129.791 C238.5959,129.765 240.1399,127.122 240.1199,124.327 C240.0999,121.613 238.5209,119.322 234.6559,119.35 L227.5029,119.401 L227.5779,129.844 L234.9779,129.791 Z M213.0239,107.17 L234.6499,107.015 C246.4089,106.93 254.6699,112.134 254.7419,122.248 C254.7779,127.182 252.4289,132.215 248.0069,134.796 L248.0079,134.96 C254.7659,136.967 257.2759,142.953 257.3129,148.133 C257.4049,160.961 246.7489,165.725 235.0719,165.808 L213.4459,165.964 L213.0239,107.17 Z" id="Fill-1" fill="#1D1D1B"></path>
        <path d="M264.1007,106.8034 L278.3267,106.7014 L278.6227,147.9804 C278.6517,152.0094 279.4017,153.4014 282.6087,153.3784 C283.5137,153.3724 284.3347,153.2834 284.3347,153.2834 L284.4227,165.6184 C284.4227,165.6184 282.4517,165.8794 280.1487,165.8954 C272.5837,165.9504 264.5137,164.1994 264.4107,149.9734 L264.1007,106.8034 Z" id="Fill-3" fill="#1D1D1B"></path>
        <path d="M310.6681,154.4108 C315.8481,154.3738 320.2611,150.4768 320.2151,144.1448 C320.1691,137.7318 315.7001,133.7338 310.5201,133.7708 C305.3391,133.8088 300.9281,137.8698 300.9741,144.2838 C301.0201,150.6148 305.4881,154.4478 310.6681,154.4108 M310.3521,121.9308 C323.7561,121.8348 334.5101,130.7208 334.6051,144.0418 C334.7001,157.2808 324.0741,166.1558 310.7531,166.2518 C297.4321,166.3478 286.6791,157.6258 286.5841,144.3868 C286.4881,131.0658 297.1141,122.0258 310.3521,121.9308" id="Fill-5" fill="#1D1D1B"></path>
        <path d="M361.2799,121.5651 C372.7919,121.4821 378.1829,127.8581 378.1829,127.8581 L372.2489,137.4401 C372.2489,137.4401 368.1079,133.3581 362.2699,133.3991 C355.5269,133.4481 352.1919,138.5701 352.2279,143.5861 C352.2639,148.6031 355.7579,154.0871 362.9109,154.0361 C368.8319,153.9931 374.4689,148.8541 374.4689,148.8541 L379.7209,158.7671 C379.7209,158.7671 373.4389,165.8011 361.5979,165.8871 C346.4679,165.9951 337.9229,155.5311 337.8389,143.8551 C337.7579,132.5071 346.0679,121.6741 361.2799,121.5651" id="Fill-7" fill="#1D1D1B"></path>
        <polygon id="Fill-9" fill="#1D1D1B" points="384.2545 105.9406 398.4795 105.8386 398.6985 136.2626 402.7275 136.2336 411.0145 122.1946 426.4735 122.0836 414.1945 141.4146 414.1965 141.5796 428.5045 164.4196 412.3055 164.5356 403.2245 148.1546 398.7835 148.1866 398.9015 164.6316 384.6765 164.7336"></polygon>
        <path d="M430.6436,105.6076 L444.8686,105.5056 L445.1646,146.7846 C445.1946,150.8136 445.9446,152.2056 449.1516,152.1826 C450.0566,152.1766 450.8776,152.0876 450.8776,152.0876 L450.9656,164.4226 C450.9656,164.4226 448.9946,164.6836 446.6916,164.6996 C439.1266,164.7546 431.0556,163.0036 430.9536,148.7776 L430.6436,105.6076 Z" id="Fill-11" fill="#1D1D1B"></path>
        <path d="M455.378,168.0915 C455.378,168.0915 457.691,169.6375 459.747,169.6225 C462.049,169.6065 465.087,168.9265 466.542,165.2975 L467.35,163.3185 L449.044,121.9225 L465.16,121.8065 L471.549,141.2495 C472.306,143.5465 473.159,147.8165 473.159,147.8165 L473.323,147.8155 C473.323,147.8155 474.117,143.7805 474.676,141.4735 L479.879,121.7005 L495.42,121.5895 L478.406,168.5845 C474.939,178.0655 467.562,181.4075 460.818,181.456906 C455.227,181.4965 450.93,178.5675 450.93,178.5675 L455.378,168.0915 Z" id="Fill-13" fill="#1D1D1B"></path>
        <path d="M503.0323,133.3756 L497.6053,133.4146 L497.5253,122.3136 L503.3643,122.2716 L503.2763,110.1026 L517.0913,110.0026 L517.1783,122.1726 L526.0583,122.1086 L526.1383,133.2096 L517.2583,133.2736 L517.3513,146.2656 C517.3853,151.0356 522.2413,151.6576 524.9553,151.6386 C526.1063,151.6306 526.8453,151.5426 526.8453,151.5426 L526.9343,163.8766 C526.9343,163.8766 525.3733,164.1346 523.0713,164.1516 C516.3293,164.1996 503.2413,162.4846 503.1393,148.2596 L503.0323,133.3756 Z" id="Fill-15" fill="#1D1D1B"></path>
        <path d="M533.8155,104.8664 L547.7115,104.7664 L547.7925,115.8674 L533.8955,115.9674 L533.8155,104.8664 Z M533.7695,121.3134 L547.9945,121.2114 L548.2985,163.5594 L534.0735,163.6614 L533.7695,121.3134 Z" id="Fill-17" fill="#1D1D1B"></path>
        <path d="M577.6163,120.0119 C589.1283,119.9289 594.5193,126.3049 594.5193,126.3049 L588.5853,135.8869 C588.5853,135.8869 584.4443,131.8039 578.6063,131.8459 C571.8633,131.8949 568.5283,137.0169 568.5643,142.0329 C568.6003,147.0489 572.0943,152.5329 579.2473,152.4829 C585.1683,152.4399 590.8053,147.3009 590.8053,147.3009 L596.0563,157.2139 C596.0563,157.2139 589.7753,164.2479 577.9343,164.3329 C562.8043,164.4419 554.2603,153.9779 554.1763,142.3009 C554.0943,130.9529 562.4043,120.1209 577.6163,120.0119" id="Fill-19" fill="#1D1D1B"></path>
        <path d="M604.8619,148.3512 C604.8619,148.3512 609.5799,152.5932 615.6639,152.5502 C617.8029,152.5342 619.8539,151.9442 619.8439,150.5462 C619.8179,146.8462 599.9979,146.5772 599.8989,132.7622 C599.8409,124.7862 607.4529,119.7972 617.2379,119.7272 C627.1059,119.6562 632.1559,124.4722 632.1559,124.4722 L627.3769,134.6212 C627.3769,134.6212 623.2409,131.1972 617.3209,131.2392 C615.1829,131.2552 613.1309,131.8452 613.1419,133.3252 C613.1649,136.5322 632.9849,136.8832 633.083216,150.5332 C633.1349,157.7692 626.7659,163.9822 615.8299,164.0612 C605.2219,164.1372 598.8449,157.9332 598.8449,157.9332 L604.8619,148.3512 Z" id="Fill-21" fill="#1D1D1B"></path>
        <path d="M130.1764,70.8659 L132.4024,70.8659 C140.3434,70.8659 150.4254,74.6489 158.0884,80.5029 C168.1524,88.1899 173.6944,98.9279 173.6944,110.7389 C173.6944,123.6709 171.0864,132.2919 168.7854,139.8969 C166.7684,146.5649 164.7354,153.4709 165.1514,161.5959 C165.5424,160.6849 168.5944,153.8569 177.9144,153.8569 C187.2334,153.8569 191.7134,161.8249 191.7134,170.1269 C191.7134,181.0979 181.6634,187.7159 173.7484,188.0429 C173.7394,188.0439 173.7314,188.0449 173.7234,188.0459 C175.8694,191.0229 176.7884,194.5409 176.7884,198.0279 C176.7884,202.9349 172.5094,215.3569 156.7794,215.3569 C138.72378,215.3569 133.367316,199.77135 131.359236,192.632615 L131.2994,192.4189 L131.2794,192.4189 C129.3184,199.4549 124.0384,215.3569 105.7994,215.3569 C90.0694,215.3569 85.7914,202.9349 85.7914,198.0279 C85.7914,194.5409 86.7104,191.0229 88.8574,188.0459 C88.8484,188.0449 88.8394,188.0439 88.8314,188.0429 C80.9164,187.7159 70.8664,181.0979 70.8664,170.1269 C70.8664,161.8249 75.3464,153.8569 84.6664,153.8569 C93.9854,153.8569 97.0374,160.6849 97.4284,161.5959 C97.8454,153.4709 95.8114,146.5649 93.7944,139.8969 C91.4934,132.2919 88.8854,123.6709 88.8854,110.7389 C88.8854,98.9279 94.4274,88.1899 104.4914,80.5029 C111.997033,74.7683694 121.824898,71.0211707 129.68758,70.8706122 L130.1764,70.8659 L132.4024,70.8659 Z M111.8014,177.2699 C109.8744,179.4709 107.6014,181.3769 105.1314,183.3009 C106.4854,183.8779 107.7454,184.6799 108.8594,185.6869 C109.5054,186.2729 110.0774,186.9189 110.5704,187.6129 C111.2714,184.5919 111.6474,181.0829 111.8014,177.2699 Z M150.7774,177.2699 C150.9324,181.0829 151.3084,184.5919 152.0084,187.6129 C152.5024,186.9189 153.0744,186.2729 153.7204,185.6869 C154.8344,184.6799 156.0944,183.8779 157.4484,183.3009 C154.9794,181.3769 152.7054,179.4709 150.7774,177.2699 Z" id="Path-2" fill="#FFFFFF"></path>
        <path d="M131.2662,152.7389 C131.2732,152.7389 131.2822,152.7439 131.2902,152.7439 C131.2982,152.7439 131.3062,152.7389 131.3142,152.7389 L131.2662,152.7389 Z" id="Fill-30" fill="#000000"></path>
        <path d="M105.1314,183.3009 C107.6014,181.3769 109.8744,179.4709 111.8014,177.2699 C111.6474,181.0829 111.2714,184.5919 110.5704,187.6129 C110.0774,186.9189 109.5054,186.2729 108.8594,185.6869 C107.7454,184.6799 106.4854,183.8779 105.1314,183.3009 M157.4484,183.3009 C156.0944,183.8779 154.8344,184.6799 153.7204,185.6869 C153.0744,186.2729 152.5024,186.9189 152.0084,187.6129 C151.3084,184.5919 150.9324,181.0829 150.7774,177.2699 C152.7054,179.4709 154.9794,181.3769 157.4484,183.3009 M171.1884,182.5279 C158.8344,182.5279 150.2114,170.3449 150.2114,157.8619 C150.1294,155.7129 148.9194,154.6039 147.7644,154.6039 C146.7174,154.6039 145.7164,155.5149 145.6414,157.3889 C143.7504,185.2839 146.7444,193.6359 150.9164,198.7859 C152.3294,200.3469 154.5884,201.3909 156.8494,201.3909 C159.1104,201.3909 160.5164,200.6929 161.9644,199.4179 C161.3994,199.6879 160.7884,199.8219 160.1784,199.8219 C159.0474,199.8219 155.5354,198.6889 155.5354,194.2779 C155.5354,189.7559 160.4884,187.8809 162.8044,187.8809 C165.1204,187.8809 166.9974,188.9189 168.3734,190.4399 C172.3174,194.8009 171.9774,201.5589 167.6154,205.5039 C164.6154,208.2169 160.7954,209.6839 156.7794,209.6839 C138.5414,209.6839 133.9194,186.2259 133.9194,159.5949 C133.9194,155.0919 132.6034,152.7719 131.2904,152.7439 C129.9764,152.7719 128.6604,155.0919 128.6604,159.5949 C128.6604,186.2259 124.0384,209.6839 105.7994,209.6839 C101.7844,209.6839 97.9644,208.2169 94.9644,205.5039 C90.6024,201.5589 90.2624,194.8009 94.2064,190.4399 C95.5824,188.9189 97.4594,187.8809 99.7754,187.8809 C102.0914,187.8809 107.0444,189.7559 107.0444,194.2779 C107.0444,198.6889 103.5324,199.8219 102.4014,199.8219 C101.7914,199.8219 101.1804,199.6879 100.6154,199.4179 C102.0634,200.6929 103.4694,201.3909 105.7304,201.3909 C107.9914,201.3909 110.2504,200.3469 111.6634,198.7859 C115.8354,193.6359 118.8294,185.2839 116.9384,157.3889 C116.8634,155.5149 115.8614,154.6039 114.8154,154.6039 C113.6604,154.6039 112.4504,155.7129 112.3684,157.8619 C112.3684,170.3449 103.7454,182.5279 91.3914,182.5279 C79.0934,182.5279 76.5334,172.6059 76.5334,169.2519 C76.5334,165.8989 78.0354,163.1669 80.6484,161.1379 C82.0274,160.0669 83.6944,159.5349 85.4144,159.5349 C85.7134,159.5349 86.0144,159.5509 86.3154,159.5829 C88.3504,159.8389 90.1644,160.8719 91.4224,162.4929 C93.4724,165.1349 92.9914,168.9499 90.3514,170.9979 C89.5934,171.5849 88.6974,171.8689 87.8084,171.8689 C86.9534,171.8689 86.1054,171.6069 85.3924,171.0959 C86.6804,172.7099 88.7464,174.0559 91.5504,174.0559 C97.7904,174.0559 103.2274,167.2019 103.2274,160.3819 C103.2274,141.6279 94.5594,133.7489 94.5594,110.7389 C94.5594,87.7299 118.3574,76.5399 130.1764,76.5399 L132.4024,76.5399 C144.2224,76.5399 168.0204,87.7299 168.0204,110.7389 C168.0204,133.7489 159.3524,141.6279 159.3524,160.3819 C159.3524,167.2019 164.7894,174.0559 171.0294,174.0559 C173.8334,174.0559 175.8994,172.7099 177.1874,171.0959 C176.4744,171.6069 175.6264,171.8689 174.7714,171.8689 C173.8824,171.8689 172.9854,171.5849 172.2284,170.9979 C169.5884,168.9499 169.1074,165.1349 171.1574,162.4929 C172.4154,160.8719 174.2294,159.8389 176.2644,159.5829 C176.5654,159.5509 176.8664,159.5349 177.1654,159.5349 C178.8854,159.5349 180.5524,160.0669 181.9314,161.1379 C184.5444,163.1669 186.0464,165.8989 186.0464,169.2519 C186.0464,172.6059 183.4864,182.5279 171.1884,182.5279 M191.7134,170.1269 C191.7134,161.8249 187.2334,153.8569 177.9144,153.8569 C168.5944,153.8569 165.5424,160.6849 165.1514,161.5959 C164.7354,153.4709 166.7684,146.5649 168.7854,139.8969 C171.0864,132.2919 173.6944,123.6709 173.6944,110.7389 C173.6944,98.9279 168.1524,88.1899 158.0884,80.5029 C150.4254,74.6489 140.3434,70.8659 132.4024,70.8659 L130.1764,70.8659 C122.2354,70.8659 112.1534,74.6489 104.4914,80.5029 C94.4274,88.1899 88.8854,98.9279 88.8854,110.7389 C88.8854,123.6709 91.4934,132.2919 93.7944,139.8969 C95.8114,146.5649 97.8454,153.4709 97.4284,161.5959 C97.0374,160.6849 93.9854,153.8569 84.6664,153.8569 C75.3464,153.8569 70.8664,161.8249 70.8664,170.1269 C70.8664,181.0979 80.9164,187.7159 88.8314,188.0429 C88.8394,188.0439 88.8484,188.0449 88.8574,188.0459 C86.7104,191.0229 85.7914,194.5409 85.7914,198.0279 C85.7914,202.9349 90.0694,215.3569 105.7994,215.3569 C124.0384,215.3569 129.3184,199.4549 131.2794,192.4189 L131.2994,192.4189 C133.2604,199.4549 138.5414,215.3569 156.7794,215.3569 C172.5094,215.3569 176.7884,202.9349 176.7884,198.0279 C176.7884,194.5409 175.8694,191.0229 173.7234,188.0459 C173.7314,188.0449 173.7394,188.0439 173.7484,188.0429 C181.6634,187.7159 191.7134,181.0979 191.7134,170.1269" id="Fill-32" fill="#1D1D1B"></path>
        <path d="M111.7095,136.5334 C110.5535,136.5334 109.6165,135.5964 109.6165,134.4404 C109.6165,133.2844 110.5535,132.3474 111.7095,132.3474 C112.8655,132.3474 113.8025,133.2844 113.8025,134.4404 C113.8025,135.5964 112.8655,136.5334 111.7095,136.5334 M120.4185,136.4144 C120.4185,132.6864 117.3995,129.6654 113.6735,129.6594 C109.9465,129.6654 106.9275,132.6864 106.9275,136.4144 C106.9275,140.1414 109.9465,143.1624 113.6725,143.1684 C117.3995,143.1634 120.4185,140.1414 120.4185,136.4144" id="Fill-26" fill="#1D1D1B"></path>
        <path d="M146.9425,136.5334 C145.7865,136.5334 144.8495,135.5964 144.8495,134.4404 C144.8495,133.2844 145.7865,132.3474 146.9425,132.3474 C148.0985,132.3474 149.0355,133.2844 149.0355,134.4404 C149.0355,135.5964 148.0985,136.5334 146.9425,136.5334 M155.6525,136.4144 C155.6525,132.6864 152.6325,129.6654 148.9065,129.6594 C145.1805,129.6654 142.1605,132.6864 142.1605,136.4144 C142.1605,140.1414 145.1795,143.1624 148.9055,143.1684 C152.6325,143.1634 155.6525,140.1414 155.6525,136.4144" id="Fill-28" fill="#1D1D1B"></path>
    </g>
</svg>