<?xml version="1.0" encoding="UTF-8"?>
<svg width="180px" height="180px" viewBox="0 0 180 180" version="1.1" xmlns="http://www.w3.org/2000/svg" xmlns:xlink="http://www.w3.org/1999/xlink">
    <!-- Generator: Sketch 58 (84663) - https://sketch.com -->
    <title>logo</title>
    <desc>Created with Sketch.</desc>
    <g id="logo" stroke="none" stroke-width="1" fill="none" fill-rule="evenodd">
        <path d="M89.31,18 L91.536,18 C99.477,18 109.559,21.783 117.222,27.637 C127.286,35.324 132.828,46.062 132.828,57.873 C132.828,70.805 130.22,79.426 127.919,87.031 C125.902,93.699 123.869,100.605 124.285,108.73 C124.676,107.819 127.728,100.991 137.048,100.991 C146.367,100.991 150.847,108.959 150.847,117.261 C150.847,128.232 140.797,134.85 132.882,135.177 C132.873,135.178 132.865,135.179 132.857,135.18 C135.003,138.157 135.922,141.675 135.922,145.162 C135.922,150.069 131.643,162.491 115.913,162.491 C97.85738,162.491 92.5009157,146.90545 90.4928356,139.766715 L90.433,139.553 L90.413,139.553 C88.452,146.589 83.172,162.491 64.933,162.491 C49.203,162.491 44.925,150.069 44.925,145.162 C44.925,141.675 45.844,138.157 47.991,135.18 C47.982,135.179 47.973,135.178 47.965,135.177 C40.05,134.85 30,128.232 30,117.261 C30,108.959 34.48,100.991 43.8,100.991 C53.119,100.991 56.171,107.819 56.562,108.73 C56.979,100.605 54.945,93.699 52.928,87.031 C50.627,79.426 48.019,70.805 48.019,57.873 C48.019,46.062 53.561,35.324 63.625,27.637 C71.1306327,21.9024694 80.9584977,18.1552707 88.82118,18.0047122 L89.31,18 L91.536,18 Z M70.935,124.404 C69.008,126.605 66.735,128.511 64.265,130.435 C65.619,131.012 66.879,131.814 67.993,132.821 C68.639,133.407 69.211,134.053 69.704,134.747 C70.405,131.726 70.781,128.217 70.935,124.404 Z M109.911,124.404 C110.066,128.217 110.442,131.726 111.142,134.747 C111.636,134.053 112.208,133.407 112.854,132.821 C113.968,131.814 115.228,131.012 116.582,130.435 C114.113,128.511 111.839,126.605 109.911,124.404 Z" id="Path-2" fill="#FFFFFF"></path>
        <path d="M90.3998,99.873 C90.4068,99.873 90.4158,99.878 90.4238,99.878 C90.4318,99.878 90.4398,99.873 90.4478,99.873 L90.3998,99.873 Z" id="Fill-30" fill="#000000"></path>
        <path d="M64.265,130.435 C66.735,128.511 69.008,126.605 70.935,124.404 C70.781,128.217 70.405,131.726 69.704,134.747 C69.211,134.053 68.639,133.407 67.993,132.821 C66.879,131.814 65.619,131.012 64.265,130.435 M116.582,130.435 C115.228,131.012 113.968,131.814 112.854,132.821 C112.208,133.407 111.636,134.053 111.142,134.747 C110.442,131.726 110.066,128.217 109.911,124.404 C111.839,126.605 114.113,128.511 116.582,130.435 M130.322,129.662 C117.968,129.662 109.345,117.479 109.345,104.996 C109.263,102.847 108.053,101.738 106.898,101.738 C105.851,101.738 104.85,102.649 104.775,104.523 C102.884,132.418 105.878,140.77 110.05,145.92 C111.463,147.481 113.722,148.525 115.983,148.525 C118.244,148.525 119.65,147.827 121.098,146.552 C120.533,146.822 119.922,146.956 119.312,146.956 C118.181,146.956 114.669,145.823 114.669,141.412 C114.669,136.89 119.622,135.015 121.938,135.015 C124.254,135.015 126.131,136.053 127.507,137.574 C131.451,141.935 131.111,148.693 126.749,152.638 C123.749,155.351 119.929,156.818 115.913,156.818 C97.675,156.818 93.053,133.36 93.053,106.729 C93.053,102.226 91.737,99.906 90.424,99.878 C89.11,99.906 87.794,102.226 87.794,106.729 C87.794,133.36 83.172,156.818 64.933,156.818 C60.918,156.818 57.098,155.351 54.098,152.638 C49.736,148.693 49.396,141.935 53.34,137.574 C54.716,136.053 56.593,135.015 58.909,135.015 C61.225,135.015 66.178,136.89 66.178,141.412 C66.178,145.823 62.666,146.956 61.535,146.956 C60.925,146.956 60.314,146.822 59.749,146.552 C61.197,147.827 62.603,148.525 64.864,148.525 C67.125,148.525 69.384,147.481 70.797,145.92 C74.969,140.77 77.963,132.418 76.072,104.523 C75.997,102.649 74.995,101.738 73.949,101.738 C72.794,101.738 71.584,102.847 71.502,104.996 C71.502,117.479 62.879,129.662 50.525,129.662 C38.227,129.662 35.667,119.74 35.667,116.386 C35.667,113.033 37.169,110.301 39.782,108.272 C41.161,107.201 42.828,106.669 44.548,106.669 C44.847,106.669 45.148,106.685 45.449,106.717 C47.484,106.973 49.298,108.006 50.556,109.627 C52.606,112.269 52.125,116.084 49.485,118.132 C48.727,118.719 47.831,119.003 46.942,119.003 C46.087,119.003 45.239,118.741 44.526,118.23 C45.814,119.844 47.88,121.19 50.684,121.19 C56.924,121.19 62.361,114.336 62.361,107.516 C62.361,88.762 53.693,80.883 53.693,57.873 C53.693,34.864 77.491,23.674 89.31,23.674 L91.536,23.674 C103.356,23.674 127.154,34.864 127.154,57.873 C127.154,80.883 118.486,88.762 118.486,107.516 C118.486,114.336 123.923,121.19 130.163,121.19 C132.967,121.19 135.033,119.844 136.321,118.23 C135.608,118.741 134.76,119.003 133.905,119.003 C133.016,119.003 132.119,118.719 131.362,118.132 C128.722,116.084 128.241,112.269 130.291,109.627 C131.549,108.006 133.363,106.973 135.398,106.717 C135.699,106.685 136,106.669 136.299,106.669 C138.019,106.669 139.686,107.201 141.065,108.272 C143.678,110.301 145.18,113.033 145.18,116.386 C145.18,119.74 142.62,129.662 130.322,129.662 M150.847,117.261 C150.847,108.959 146.367,100.991 137.048,100.991 C127.728,100.991 124.676,107.819 124.285,108.73 C123.869,100.605 125.902,93.699 127.919,87.031 C130.22,79.426 132.828,70.805 132.828,57.873 C132.828,46.062 127.286,35.324 117.222,27.637 C109.559,21.783 99.477,18 91.536,18 L89.31,18 C81.369,18 71.287,21.783 63.625,27.637 C53.561,35.324 48.019,46.062 48.019,57.873 C48.019,70.805 50.627,79.426 52.928,87.031 C54.945,93.699 56.979,100.605 56.562,108.73 C56.171,107.819 53.119,100.991 43.8,100.991 C34.48,100.991 30,108.959 30,117.261 C30,128.232 40.05,134.85 47.965,135.177 C47.973,135.178 47.982,135.179 47.991,135.18 C45.844,138.157 44.925,141.675 44.925,145.162 C44.925,150.069 49.203,162.491 64.933,162.491 C83.172,162.491 88.452,146.589 90.413,139.553 L90.433,139.553 C92.394,146.589 97.675,162.491 115.913,162.491 C131.643,162.491 135.922,150.069 135.922,145.162 C135.922,141.675 135.003,138.157 132.857,135.18 C132.865,135.179 132.873,135.178 132.882,135.177 C140.797,134.85 150.847,128.232 150.847,117.261" id="Fill-32" fill="#1D1D1B"></path>
        <path d="M70.8431,83.6675 C69.6871,83.6675 68.7501,82.7305 68.7501,81.5745 C68.7501,80.4185 69.6871,79.4815 70.8431,79.4815 C71.9991,79.4815 72.9361,80.4185 72.9361,81.5745 C72.9361,82.7305 71.9991,83.6675 70.8431,83.6675 M79.5521,83.5485 C79.5521,79.8205 76.5331,76.7995 72.8071,76.7935 C69.0801,76.7995 66.0611,79.8205 66.0611,83.5485 C66.0611,87.2755 69.0801,90.2965 72.8061,90.3025 C76.5331,90.2975 79.5521,87.2755 79.5521,83.5485" id="Fill-26" fill="#1D1D1B"></path>
        <path d="M106.0761,83.6675 C104.9201,83.6675 103.9831,82.7305 103.9831,81.5745 C103.9831,80.4185 104.9201,79.4815 106.0761,79.4815 C107.2321,79.4815 108.1691,80.4185 108.1691,81.5745 C108.1691,82.7305 107.2321,83.6675 106.0761,83.6675 M114.7861,83.5485 C114.7861,79.8205 111.7661,76.7995 108.0401,76.7935 C104.3141,76.7995 101.2941,79.8205 101.2941,83.5485 C101.2941,87.2755 104.3131,90.2965 108.0391,90.3025 C111.7661,90.2975 114.7861,87.2755 114.7861,83.5485" id="Fill-28" fill="#1D1D1B"></path>
    </g>
</svg>